<svg xmlns="http://www.w3.org/2000/svg" xmlns:xlink="http://www.w3.org/1999/xlink" width="500" zoomAndPan="magnify" viewBox="0 0 375 374.999991" height="500" preserveAspectRatio="xMidYMid meet" version="1.0"><defs><g/></defs><g fill="#e4e2dd" fill-opacity="1"><g transform="translate(90.961596, 187.253852)"><g><path d="M 24.75 -9.921875 L 8.84375 -9.921875 C 8.84375 -8.378906 9.34375 -7.238281 10.34375 -6.5 C 11.34375 -5.757812 12.425781 -5.390625 13.59375 -5.390625 C 14.820312 -5.390625 15.789062 -5.550781 16.5 -5.875 C 17.207031 -6.207031 18.019531 -6.859375 18.9375 -7.828125 L 24.40625 -5.09375 C 22.125 -1.269531 18.332031 0.640625 13.03125 0.640625 C 9.726562 0.640625 6.894531 -0.488281 4.53125 -2.75 C 2.164062 -5.019531 0.984375 -7.75 0.984375 -10.9375 C 0.984375 -14.132812 2.164062 -16.875 4.53125 -19.15625 C 6.894531 -21.4375 9.726562 -22.578125 13.03125 -22.578125 C 16.507812 -22.578125 19.335938 -21.570312 21.515625 -19.5625 C 23.703125 -17.550781 24.796875 -14.675781 24.796875 -10.9375 C 24.796875 -10.425781 24.78125 -10.085938 24.75 -9.921875 Z M 9.0625 -14.109375 L 17.40625 -14.109375 C 17.226562 -15.242188 16.773438 -16.117188 16.046875 -16.734375 C 15.328125 -17.347656 14.394531 -17.65625 13.25 -17.65625 C 12 -17.65625 11.003906 -17.328125 10.265625 -16.671875 C 9.523438 -16.015625 9.125 -15.160156 9.0625 -14.109375 Z M 9.0625 -14.109375 "/></g></g></g><g fill="#e4e2dd" fill-opacity="1"><g transform="translate(113.096598, 187.253852)"><g><path d="M 14.234375 -16.375 C 12.804688 -16.375 11.578125 -15.84375 10.546875 -14.78125 C 9.523438 -13.726562 9.015625 -12.460938 9.015625 -10.984375 C 9.015625 -9.472656 9.523438 -8.191406 10.546875 -7.140625 C 11.578125 -6.085938 12.804688 -5.5625 14.234375 -5.5625 C 14.921875 -5.5625 15.566406 -5.644531 16.171875 -5.8125 C 16.785156 -5.988281 17.238281 -6.160156 17.53125 -6.328125 L 17.90625 -6.578125 L 20.484375 -1.328125 C 20.273438 -1.179688 19.992188 -1 19.640625 -0.78125 C 19.285156 -0.570312 18.472656 -0.285156 17.203125 0.078125 C 15.929688 0.453125 14.570312 0.640625 13.125 0.640625 C 9.90625 0.640625 7.078125 -0.488281 4.640625 -2.75 C 2.203125 -5.019531 0.984375 -7.738281 0.984375 -10.90625 C 0.984375 -14.09375 2.203125 -16.832031 4.640625 -19.125 C 7.078125 -21.425781 9.90625 -22.578125 13.125 -22.578125 C 14.570312 -22.578125 15.910156 -22.40625 17.140625 -22.0625 C 18.367188 -21.71875 19.238281 -21.375 19.75 -21.03125 L 20.484375 -20.515625 L 17.90625 -15.34375 C 16.96875 -16.03125 15.742188 -16.375 14.234375 -16.375 Z M 14.234375 -16.375 "/></g></g></g><g fill="#e4e2dd" fill-opacity="1"><g transform="translate(130.445426, 187.253852)"><g><path d="M 4.640625 -2.609375 C 2.203125 -4.773438 0.984375 -7.550781 0.984375 -10.9375 C 0.984375 -14.332031 2.25 -17.117188 4.78125 -19.296875 C 7.320312 -21.484375 10.457031 -22.578125 14.1875 -22.578125 C 17.863281 -22.578125 20.960938 -21.476562 23.484375 -19.28125 C 26.015625 -17.082031 27.28125 -14.300781 27.28125 -10.9375 C 27.28125 -7.582031 26.046875 -4.8125 23.578125 -2.625 C 21.109375 -0.445312 17.976562 0.640625 14.1875 0.640625 C 10.257812 0.640625 7.078125 -0.441406 4.640625 -2.609375 Z M 10.484375 -14.65625 C 9.503906 -13.6875 9.015625 -12.445312 9.015625 -10.9375 C 9.015625 -9.425781 9.484375 -8.191406 10.421875 -7.234375 C 11.367188 -6.285156 12.613281 -5.8125 14.15625 -5.8125 C 15.632812 -5.8125 16.847656 -6.296875 17.796875 -7.265625 C 18.753906 -8.234375 19.234375 -9.457031 19.234375 -10.9375 C 19.234375 -12.445312 18.738281 -13.6875 17.75 -14.65625 C 16.769531 -15.625 15.570312 -16.109375 14.15625 -16.109375 C 12.695312 -16.109375 11.472656 -15.625 10.484375 -14.65625 Z M 10.484375 -14.65625 "/></g></g></g><g fill="#e4e2dd" fill-opacity="1"><g transform="translate(155.058985, 187.253852)"><g><path d="M 12.09375 -22.578125 C 13.351562 -22.578125 14.59375 -22.429688 15.8125 -22.140625 C 17.039062 -21.859375 17.953125 -21.578125 18.546875 -21.296875 L 19.453125 -20.859375 L 16.96875 -15.90625 C 15.257812 -16.8125 13.632812 -17.265625 12.09375 -17.265625 C 11.238281 -17.265625 10.632812 -17.171875 10.28125 -16.984375 C 9.925781 -16.804688 9.75 -16.460938 9.75 -15.953125 C 9.75 -15.835938 9.757812 -15.722656 9.78125 -15.609375 C 9.8125 -15.492188 9.867188 -15.382812 9.953125 -15.28125 C 10.046875 -15.1875 10.125 -15.101562 10.1875 -15.03125 C 10.257812 -14.957031 10.378906 -14.875 10.546875 -14.78125 C 10.722656 -14.695312 10.859375 -14.632812 10.953125 -14.59375 C 11.054688 -14.550781 11.222656 -14.488281 11.453125 -14.40625 C 11.679688 -14.320312 11.851562 -14.257812 11.96875 -14.21875 C 12.082031 -14.175781 12.273438 -14.109375 12.546875 -14.015625 C 12.816406 -13.929688 13.023438 -13.875 13.171875 -13.84375 C 14.054688 -13.59375 14.820312 -13.3125 15.46875 -13 C 16.125 -12.6875 16.816406 -12.257812 17.546875 -11.71875 C 18.273438 -11.175781 18.835938 -10.488281 19.234375 -9.65625 C 19.640625 -8.832031 19.84375 -7.894531 19.84375 -6.84375 C 19.84375 -1.851562 16.378906 0.640625 9.453125 0.640625 C 7.878906 0.640625 6.382812 0.398438 4.96875 -0.078125 C 3.5625 -0.566406 2.546875 -1.050781 1.921875 -1.53125 L 0.984375 -2.3125 L 4.0625 -7.484375 C 4.289062 -7.285156 4.585938 -7.050781 4.953125 -6.78125 C 5.328125 -6.507812 6 -6.132812 6.96875 -5.65625 C 7.9375 -5.1875 8.773438 -4.953125 9.484375 -4.953125 C 11.054688 -4.953125 11.84375 -5.484375 11.84375 -6.546875 C 11.84375 -7.023438 11.640625 -7.398438 11.234375 -7.671875 C 10.835938 -7.941406 10.160156 -8.25 9.203125 -8.59375 C 8.253906 -8.9375 7.507812 -9.25 6.96875 -9.53125 C 5.601562 -10.25 4.519531 -11.054688 3.71875 -11.953125 C 2.914062 -12.847656 2.515625 -14.035156 2.515625 -15.515625 C 2.515625 -17.742188 3.375 -19.476562 5.09375 -20.71875 C 6.820312 -21.957031 9.15625 -22.578125 12.09375 -22.578125 Z M 12.09375 -22.578125 "/></g></g></g><g fill="#e4e2dd" fill-opacity="1"><g transform="translate(172.450549, 187.253852)"><g><path d="M 16.03125 0 L 10.90625 0 L -0.859375 -21.9375 L 7.859375 -21.9375 L 13.203125 -10.09375 L 18.46875 -21.9375 L 23.6875 -21.9375 L 28.9375 -10.09375 L 34.28125 -21.9375 L 43 -21.9375 L 31.25 0 L 26.125 0 L 21.078125 -11.328125 Z M 16.03125 0 "/></g></g></g><g fill="#e4e2dd" fill-opacity="1"><g transform="translate(210.952562, 187.253852)"><g><path d="M 3.28125 -34.15625 C 4.164062 -35.039062 5.222656 -35.484375 6.453125 -35.484375 C 7.679688 -35.484375 8.734375 -35.039062 9.609375 -34.15625 C 10.492188 -33.269531 10.9375 -32.210938 10.9375 -30.984375 C 10.9375 -29.765625 10.492188 -28.710938 9.609375 -27.828125 C 8.734375 -26.941406 7.679688 -26.5 6.453125 -26.5 C 5.222656 -26.5 4.164062 -26.941406 3.28125 -27.828125 C 2.40625 -28.710938 1.96875 -29.765625 1.96875 -30.984375 C 1.96875 -32.210938 2.40625 -33.269531 3.28125 -34.15625 Z M 2.5625 -21.9375 L 2.5625 0 L 10.125 0 L 10.125 -21.9375 Z M 2.5625 -21.9375 "/></g></g></g><g fill="#e4e2dd" fill-opacity="1"><g transform="translate(220.224722, 187.253852)"><g><path d="M 3.84375 -21.9375 L 3.84375 -30.09375 L 11.421875 -30.09375 L 11.421875 -21.9375 L 16.03125 -21.9375 L 16.03125 -16.15625 L 11.421875 -16.15625 L 11.421875 -9.1875 C 11.421875 -7.164062 11.988281 -6.15625 13.125 -6.15625 C 13.40625 -6.15625 13.703125 -6.210938 14.015625 -6.328125 C 14.335938 -6.441406 14.582031 -6.554688 14.75 -6.671875 L 15 -6.84375 L 16.890625 -0.734375 C 15.265625 0.179688 13.410156 0.640625 11.328125 0.640625 C 9.898438 0.640625 8.671875 0.390625 7.640625 -0.109375 C 6.617188 -0.609375 5.84375 -1.273438 5.3125 -2.109375 C 4.789062 -2.953125 4.414062 -3.835938 4.1875 -4.765625 C 3.957031 -5.691406 3.84375 -6.679688 3.84375 -7.734375 L 3.84375 -16.15625 L 0.6875 -16.15625 L 0.6875 -21.9375 Z M 3.84375 -21.9375 "/></g></g></g><g fill="#e4e2dd" fill-opacity="1"><g transform="translate(233.471109, 187.253852)"><g><path d="M 14.234375 -16.375 C 12.804688 -16.375 11.578125 -15.84375 10.546875 -14.78125 C 9.523438 -13.726562 9.015625 -12.460938 9.015625 -10.984375 C 9.015625 -9.472656 9.523438 -8.191406 10.546875 -7.140625 C 11.578125 -6.085938 12.804688 -5.5625 14.234375 -5.5625 C 14.921875 -5.5625 15.566406 -5.644531 16.171875 -5.8125 C 16.785156 -5.988281 17.238281 -6.160156 17.53125 -6.328125 L 17.90625 -6.578125 L 20.484375 -1.328125 C 20.273438 -1.179688 19.992188 -1 19.640625 -0.78125 C 19.285156 -0.570312 18.472656 -0.285156 17.203125 0.078125 C 15.929688 0.453125 14.570312 0.640625 13.125 0.640625 C 9.90625 0.640625 7.078125 -0.488281 4.640625 -2.75 C 2.203125 -5.019531 0.984375 -7.738281 0.984375 -10.90625 C 0.984375 -14.09375 2.203125 -16.832031 4.640625 -19.125 C 7.078125 -21.425781 9.90625 -22.578125 13.125 -22.578125 C 14.570312 -22.578125 15.910156 -22.40625 17.140625 -22.0625 C 18.367188 -21.71875 19.238281 -21.375 19.75 -21.03125 L 20.484375 -20.515625 L 17.90625 -15.34375 C 16.96875 -16.03125 15.742188 -16.375 14.234375 -16.375 Z M 14.234375 -16.375 "/></g></g></g><g fill="#e4e2dd" fill-opacity="1"><g transform="translate(250.819938, 187.253852)"><g><path d="M 2.5625 0 L 2.5625 -36.765625 L 10.125 -36.765625 L 10.125 -19.625 L 10.21875 -19.625 C 12.1875 -21.59375 14.28125 -22.578125 16.5 -22.578125 C 17.582031 -22.578125 18.65625 -22.429688 19.71875 -22.140625 C 20.789062 -21.859375 21.816406 -21.414062 22.796875 -20.8125 C 23.785156 -20.21875 24.585938 -19.367188 25.203125 -18.265625 C 25.816406 -17.171875 26.125 -15.898438 26.125 -14.453125 L 26.125 0 L 18.546875 0 L 18.546875 -12.390625 C 18.546875 -13.535156 18.179688 -14.535156 17.453125 -15.390625 C 16.734375 -16.242188 15.789062 -16.671875 14.625 -16.671875 C 13.476562 -16.671875 12.441406 -16.226562 11.515625 -15.34375 C 10.585938 -14.457031 10.125 -13.472656 10.125 -12.390625 L 10.125 0 Z M 2.5625 0 "/></g></g></g><path stroke-linecap="butt" transform="matrix(0.75, 0, 0, 0.75, 78.495674, 194.403928)" fill="none" stroke-linejoin="miter" d="M 0.000560006 4.997888 L 84.432857 4.997888 " stroke="#e4e2dd" stroke-width="10" stroke-opacity="1" stroke-miterlimit="4"/><path stroke-linecap="butt" transform="matrix(0, 0.75, -0.75, 0, 85.991922, 150.216816)" fill="none" stroke-linejoin="miter" d="M 0.00257902 4.999646 L 65.507792 4.999646 " stroke="#e4e2dd" stroke-width="10" stroke-opacity="1" stroke-miterlimit="4"/><path stroke-linecap="butt" transform="matrix(-0.75, 0, 0, -0.75, 291.439497, 143.73355)" fill="none" stroke-linejoin="miter" d="M -0.00254518 4.9989 L 84.43496 4.9989 " stroke="#e4e2dd" stroke-width="10" stroke-opacity="1" stroke-miterlimit="4"/><path stroke-linecap="butt" transform="matrix(0, -0.75, 0.75, 0, 283.940319, 187.494832)" fill="none" stroke-linejoin="miter" d="M -0.00168168 5.00145 L 64.925406 5.00145 " stroke="#e4e2dd" stroke-width="10" stroke-opacity="1" stroke-miterlimit="4"/></svg>