<?xml version="1.0" encoding="UTF-8"?>
<svg version="1.1" xmlns="http://www.w3.org/2000/svg" width="1024" height="1024" fill="e4e2dd">
<path d="M0 0 C1.75977425 -0.01469078 1.75977425 -0.01469078 3.55509949 -0.02967834 C29.76409212 -0.20330221 55.50438524 0.01975742 81.40625 4.23828125 C82.06874756 4.34483032 82.73124512 4.45137939 83.41381836 4.56115723 C120.51634789 10.56534758 156.25119736 21.62472358 190.40625 37.23828125 C191.62852295 37.78669678 191.62852295 37.78669678 192.87548828 38.34619141 C231.80397209 55.82444928 267.27706417 80.55973501 298.484375 109.5390625 C300.41678918 111.32422052 302.36460823 113.09286005 304.328125 114.84375 C379.87507321 182.49624198 424.08383497 284.05961781 432.40625 387.23828125 C432.56295479 391.43630242 432.61539257 395.63135623 432.64453125 399.83203125 C432.6543251 401.00521408 432.66411896 402.17839691 432.67420959 403.38713074 C432.84783346 429.59612337 432.62477383 455.33641649 428.40625 481.23828125 C428.29970093 481.90077881 428.19315186 482.56327637 428.08337402 483.24584961 C422.12214928 520.08287579 411.23615552 555.61203262 395.66259766 589.49951172 C394.55360998 591.91704452 393.46606557 594.34257979 392.38671875 596.7734375 C378.30334708 628.10092708 358.48698389 657.02439144 336.40625 683.23828125 C335.97940918 683.75003906 335.55256836 684.26179687 335.11279297 684.7890625 C322.8151304 699.51638116 309.78543609 713.52329385 295.40625 726.23828125 C294.83084473 726.75310059 294.25543945 727.26791992 293.66259766 727.79833984 C283.9633357 736.46582143 273.87445779 744.51970997 263.40625 752.23828125 C262.72336914 752.74214355 262.04048828 753.24600586 261.33691406 753.76513672 C195.96668351 801.66278061 113.46069426 832.10418256 31.94140625 832.44140625 C30.79762512 832.44842056 29.65384399 832.45543488 28.47540283 832.46266174 C24.80647796 832.48005775 21.13771459 832.48651371 17.46875 832.48828125 C16.214039 832.48895599 14.959328 832.48963074 13.66659546 832.49032593 C-4.95113871 832.47441194 -23.15945466 832.04046911 -41.59375 829.23828125 C-42.77179199 829.0666748 -43.94983398 828.89506836 -45.16357422 828.71826172 C-84.69829029 822.84240207 -123.51923245 811.52888462 -159.59375 794.23828125 C-160.34946289 793.87782715 -161.10517578 793.51737305 -161.88378906 793.14599609 C-165.83169724 791.24827747 -169.73834395 789.28200202 -173.62304688 787.25830078 C-175.74532808 786.1598257 -177.87987014 785.08764863 -180.015625 784.015625 C-203.02030177 772.34312297 -224.79240894 757.77671958 -244.59375 741.23828125 C-245.09181152 740.82368652 -245.58987305 740.4090918 -246.10302734 739.98193359 C-253.41031672 733.88923717 -260.56922129 727.65614612 -267.59375 721.23828125 C-268.59859479 720.33813567 -269.60382228 719.43841718 -270.609375 718.5390625 C-345.74642971 650.86405294 -390.05763543 551.3490734 -399.59375 445.23828125 C-399.75045479 441.04026008 -399.80289257 436.84520627 -399.83203125 432.64453125 C-399.8418251 431.47134842 -399.85161896 430.29816559 -399.86170959 429.08943176 C-400.03533346 402.88043913 -399.81227383 377.14014601 -395.59375 351.23828125 C-395.48720093 350.57578369 -395.38065186 349.91328613 -395.27087402 349.23071289 C-389.26668367 312.12818336 -378.20730767 276.39333389 -362.59375 242.23828125 C-362.22813965 241.42343262 -361.8625293 240.60858398 -361.48583984 239.76904297 C-343.97049269 200.75795199 -319.16856994 165.36670179 -290.19140625 134.0546875 C-287.7141879 131.36886128 -285.27498449 128.65320675 -282.84375 125.92578125 C-277.47563016 119.95696594 -271.90303044 114.42083738 -265.8203125 109.18359375 C-263.24460585 106.93323952 -260.7344091 104.61802217 -258.21875 102.30078125 C-253.16911921 97.71145694 -248.00398827 93.39476153 -242.59375 89.23828125 C-241.89604492 88.70041992 -241.19833984 88.16255859 -240.47949219 87.60839844 C-229.18014217 78.92485495 -217.71316826 70.73557903 -205.59375 63.23828125 C-204.99884766 62.86574219 -204.40394531 62.49320313 -203.79101562 62.109375 C-143.54181053 24.46205536 -71.45428143 0.49565453 0 0 Z M-197.59375 137.23828125 C-198.60115234 138.02936279 -198.60115234 138.02936279 -199.62890625 138.83642578 C-219.55401497 154.56005878 -239.08122779 172.0894977 -254.59375 192.23828125 C-255.49141562 193.33870015 -256.39271399 194.43616179 -257.296875 195.53125 C-270.24814627 211.28285431 -281.48717561 227.91447819 -291.26367188 245.80859375 C-292.47662835 248.02433215 -293.71152745 250.22601728 -294.953125 252.42578125 C-316.56012238 291.26343546 -328.56438661 335.29612874 -333.59375 379.23828125 C-333.67963379 379.96209488 -333.76551758 380.68590851 -333.85400391 381.43165588 C-334.57288816 387.91767799 -334.76882086 394.33680401 -334.796875 400.859375 C-334.80388931 401.9490155 -334.81090363 403.03865601 -334.81813049 404.16131592 C-334.83557158 407.66618001 -334.84198433 411.17087533 -334.84375 414.67578125 C-334.84442474 415.87079254 -334.84509949 417.06580383 -334.84579468 418.29702759 C-334.83035344 435.47157822 -334.50857087 452.27260191 -331.59375 469.23828125 C-331.42214355 470.28725586 -331.25053711 471.33623047 -331.07373047 472.41699219 C-320.23391342 537.53339096 -291.67500905 598.96901774 -247.59375 648.23828125 C-246.59891602 649.36230347 -246.59891602 649.36230347 -245.58398438 650.5090332 C-233.88278648 663.64980661 -221.57493379 676.51186792 -207.59375 687.23828125 C-206.48270546 688.14611489 -205.37485326 689.05786385 -204.26953125 689.97265625 C-133.76166687 748.05816076 -40.82395474 775.00153117 49.828125 766.67578125 C89.08072916 762.71426589 126.46149334 752.31713476 162.40625 736.23828125 C163.14439941 735.9124707 163.88254883 735.58666016 164.64306641 735.25097656 C195.2315824 721.6951015 223.508748 702.51410105 248.40625 680.23828125 C249.53027222 679.24344727 249.53027222 679.24344727 250.67700195 678.22851562 C263.81777536 666.52731773 276.67983667 654.21946504 287.40625 640.23828125 C288.31408364 639.12723671 289.2258326 638.01938451 290.140625 636.9140625 C328.58032711 590.25351739 353.45672796 533.36038985 363.65625 473.92578125 C363.80755371 473.04486816 363.95885742 472.16395508 364.11474609 471.25634766 C367.02946994 453.0862556 367.77946069 435.05565083 367.71875 416.67578125 C367.71692719 415.529422 367.71510437 414.38306274 367.71322632 413.20196533 C367.66815987 396.3647275 367.2481927 379.8712708 364.40625 363.23828125 C364.14884033 361.66264404 364.14884033 361.66264404 363.88623047 360.05517578 C353.04510231 294.94058923 324.48643261 233.50634163 280.40625 184.23828125 C279.41141602 183.11425903 279.41141602 183.11425903 278.39648438 181.9675293 C266.69528648 168.82675589 254.38743379 155.96469458 240.40625 145.23828125 C239.29520546 144.33044761 238.18735326 143.41869865 237.08203125 142.50390625 C184.6927116 99.3447482 120.51196187 74.1211642 53.40625 66.23828125 C52.56908447 66.13950684 51.73191895 66.04073242 50.86938477 65.93896484 C-36.51493286 56.40548702 -128.59731709 82.90187571 -197.59375 137.23828125 Z " fill="#4A4A4A" transform="translate(495.59375,95.76171875)"/>
<path d="M0 0 C0.00097681 0.57114946 0.00195362 1.14229891 0.00296003 1.73075593 C0.06122166 35.57555594 0.13501054 69.42028376 0.22898628 103.26500327 C0.24025456 107.32803573 0.25139299 111.39106853 0.26245117 115.45410156 C0.2657567 116.66742567 0.2657567 116.66742567 0.269129 117.90526138 C0.30450931 131.00561385 0.3293693 144.10596625 0.35034702 157.20634879 C0.37210323 170.64678353 0.40515193 184.08715621 0.44870156 197.52753818 C0.47522139 205.82215968 0.49291431 214.11670387 0.49934604 222.41136567 C0.50459891 228.09796199 0.52081248 233.78446098 0.54566566 239.47100516 C0.55968423 242.75273835 0.56722653 246.03426255 0.56500816 249.3160305 C0.563362 252.87431359 0.57999946 256.43205583 0.60127258 259.99026489 C0.59642501 261.02723483 0.59157743 262.06420477 0.58658296 263.13259804 C0.65160179 269.70524654 1.34574603 274.34574603 6.1875 279.1875 C14.00203107 284.22353113 22.32495631 285.06915638 31.4609375 285.53515625 C32.6467894 285.59962196 32.6467894 285.59962196 33.8565979 285.66539001 C36.36257498 285.80090226 38.86876928 285.93177154 41.375 286.0625 C43.08204775 286.15398947 44.78907923 286.24578317 46.49609375 286.33789062 C50.66386334 286.56268286 54.83189519 286.78118512 59 287 C59 297.89 59 308.78 59 320 C-23.83 320 -106.66 320 -192 320 C-192 309.11 -192 298.22 -192 287 C-189.01195312 286.89042969 -186.02390625 286.78085937 -182.9453125 286.66796875 C-180.02264898 286.55185111 -177.10020006 286.43128602 -174.17773438 286.31030273 C-172.16066322 286.22916176 -170.14340291 286.15257995 -168.12597656 286.08081055 C-165.21096042 285.97629093 -162.29703884 285.85489776 -159.3828125 285.73046875 C-158.04937302 285.6880732 -158.04937302 285.6880732 -156.68899536 285.64482117 C-149.40994419 285.30788093 -142.57261974 283.94164116 -136.125 280.4375 C-128.09270464 271.22398474 -129.4317175 259.16216952 -129.48242188 247.71435547 C-129.47699593 245.65691636 -129.46987062 243.59948114 -129.46118164 241.54205322 C-129.44300399 235.97607245 -129.44999231 230.41038948 -129.46269798 224.84440374 C-129.47285171 219.01052921 -129.46342597 213.17667953 -129.45715332 207.34280396 C-129.44988499 197.54961587 -129.4594445 187.75654863 -129.47851562 177.96337891 C-129.50029487 166.64906545 -129.49322195 155.33504022 -129.47121 144.02073371 C-129.45304735 134.29477248 -129.45050158 124.56889791 -129.46096468 114.84292519 C-129.46719325 109.03901261 -129.4680524 103.23523545 -129.45481873 97.43133163 C-129.44324792 91.97616097 -129.45130875 86.52136143 -129.47439575 81.06623077 C-129.4796757 79.06679271 -129.47818133 77.06732331 -129.46934509 75.0678978 C-129.45837812 72.33389868 -129.47216683 69.60108126 -129.49206543 66.86715698 C-129.4786811 65.68669416 -129.4786811 65.68669416 -129.46502638 64.48238361 C-129.56272023 57.53980518 -131.84361268 52.43284724 -136.4375 47.25 C-148.40689489 38.25776425 -165.94130709 39.86230426 -180.0625 39.9375 C-181.70768093 39.9425242 -183.35286335 39.94708548 -184.99804688 39.95117188 C-188.99876497 39.96124925 -192.99927425 39.9808374 -197 40 C-197 29.11 -197 18.22 -197 7 C-193.66836707 5.88945569 -190.99233772 5.77940662 -187.48095703 5.65196228 C-186.81549079 5.62660654 -186.15002455 5.6012508 -185.46439266 5.57512671 C-183.22900119 5.49106556 -180.9934335 5.41339224 -178.7578125 5.33569336 C-177.15586511 5.27680199 -175.55393157 5.21753265 -173.95201111 5.15791321 C-169.5890899 4.99674923 -165.22598306 4.84126612 -160.86281204 4.68703151 C-157.20424868 4.55715861 -153.54579059 4.42444716 -149.88733006 4.29171377 C-141.22727241 3.97752877 -132.56706213 3.66783739 -123.90673828 3.36108398 C-115.03710321 3.04685586 -106.16772634 2.72601131 -97.2984581 2.4016065 C-89.64806033 2.12198116 -81.99752918 1.84623955 -74.34688187 1.5735274 C-69.7947561 1.41125172 -65.24268579 1.2477248 -60.69073486 1.08061028 C-56.38332909 0.92267714 -52.07577127 0.76971548 -47.76806831 0.62011528 C-46.21194178 0.56533663 -44.65586809 0.50902367 -43.09986687 0.45079422 C-28.73414557 -0.08489591 -14.37420402 -0.05578283 0 0 Z " fill="#4A4A4A" transform="translate(581,448)"/>
<path d="M0 0 C14.35546434 11.70990834 26.06794902 27.89121936 28.30664062 46.72021484 C29.76601625 68.44058871 26.97909464 88.67535502 12.32739258 105.62890625 C-0.87957734 120.09489289 -17.32732525 130.10586173 -37.24804688 131.03271484 C-57.93878131 131.62467515 -76.50369154 127.612305 -92.13085938 113.34521484 C-106.8738166 99.20544466 -115.50400135 82.70692505 -116.09399414 62.08496094 C-116.33065412 41.68831843 -111.22582647 23.74080029 -96.89331055 8.796875 C-71.34187485 -16.78517169 -29.7766123 -22.50418132 0 0 Z " fill="#4A4A4A" transform="translate(547.693359375,269.27978515625)"/>
</svg>
